<svg width="982" height="373" viewBox="0 0 982 373" fill="none" xmlns="http://www.w3.org/2000/svg">
<path d="M78.3721 360.649C398.157 120.094 579.046 126.539 904.117 360.649" stroke="#F79D31"/>
<path d="M250.447 217.436C250.671 218.217 250.658 219.047 250.41 219.82C250.162 220.594 249.69 221.277 249.054 221.782C248.418 222.288 247.646 222.594 246.836 222.662C246.026 222.729 245.214 222.555 244.503 222.161C243.792 221.768 243.214 221.172 242.842 220.45C242.47 219.728 242.321 218.912 242.413 218.105C242.505 217.298 242.835 216.536 243.36 215.916C243.886 215.296 244.583 214.846 245.364 214.622C246.412 214.321 247.536 214.449 248.49 214.977C249.443 215.505 250.147 216.389 250.447 217.436Z" fill="#FFF2E2"/>
<path d="M252.005 216.99C252.229 217.77 252.216 218.6 251.968 219.374C251.72 220.147 251.248 220.83 250.612 221.336C249.975 221.842 249.203 222.148 248.393 222.215C247.583 222.283 246.771 222.108 246.061 221.715C245.35 221.321 244.772 220.726 244.4 220.004C244.028 219.282 243.878 218.466 243.971 217.659C244.063 216.852 244.392 216.09 244.918 215.47C245.443 214.85 246.141 214.399 246.922 214.175C247.97 213.875 249.094 214.002 250.047 214.53C251.001 215.058 251.705 215.943 252.005 216.99Z" fill="#FFF2E2"/>
<path d="M279.971 221.082C279.703 218.827 277.655 217.216 275.398 217.485C273.14 217.753 271.527 219.8 271.795 222.056C272.063 224.311 274.11 225.922 276.368 225.653C278.625 225.385 280.238 223.338 279.971 221.082Z" fill="#FFF2E2"/>
<path d="M281.531 220.635C281.263 218.379 279.215 216.768 276.958 217.037C274.7 217.306 273.087 219.352 273.355 221.608C273.623 223.864 275.67 225.474 277.928 225.206C280.185 224.937 281.798 222.89 281.531 220.635Z" fill="#FFF2E2"/>
<path d="M242.152 215.177L247.698 217.989C248.259 218.274 248.866 218.457 249.491 218.529L282.492 222.332L286.843 216.824L242.152 215.177Z" fill="#33353B"/>
<path d="M291.57 153.204L289.889 152.638C293.671 141.431 300.887 119.436 301.111 116.364C301.256 114.42 300.839 112.95 299.873 111.997C298.322 110.468 295.789 110.666 295.765 110.668L295.667 110.672L288.549 110.523C280.194 109.687 278.675 116.488 278.614 116.778L278.589 116.866L268.665 148.298L266.973 147.764L276.874 116.371C277.263 114.837 277.995 113.411 279.013 112.2C280.572 110.346 283.507 108.25 288.679 108.754L295.656 108.892C296.117 108.861 299.086 108.738 301.106 110.717C302.468 112.056 303.063 113.996 302.878 116.491C302.584 120.56 292.018 151.872 291.57 153.204Z" fill="#33353B"/>
<path d="M287.686 147.126L305.023 152.911C305.023 152.911 309.943 155.669 307.771 164.622C305.857 172.499 296.237 216.841 296.237 216.841C296.237 216.841 294.232 226.068 274.632 220.86L287.686 147.126Z" fill="#33353B"/>
<path d="M295.992 160.697L284.878 210.313C284.259 213.08 282.634 215.519 280.318 217.157C278.001 218.795 275.159 219.515 272.342 219.178L255.834 217.211L255.425 217.165L245.086 215.931C244.076 215.813 243.085 215.56 242.141 215.18C241.925 215.093 241.716 215 241.507 214.9C239.063 213.736 237.112 211.742 236.002 209.274C234.893 206.806 234.696 204.024 235.447 201.423L248.993 154.318C249.697 151.874 251.194 149.733 253.25 148.233C255.306 146.734 257.803 145.961 260.346 146.037L263.297 146.124L263.999 146.148L264.59 146.167L274.446 146.457L275.656 146.493L285.168 146.776C286.607 146.816 288.026 147.127 289.349 147.692L289.606 147.803L290.129 148.056C292.363 149.223 294.149 151.095 295.209 153.38C296.269 155.666 296.545 158.238 295.992 160.697Z" fill="#44474F"/>
<path d="M282.166 215.523C280.939 216.869 279.408 217.902 277.701 218.538C275.994 219.173 274.159 219.392 272.351 219.176L255.843 217.209L255.433 217.163L245.095 215.93C244.084 215.811 243.093 215.558 242.15 215.178C241.934 215.091 241.725 214.998 241.516 214.898C238.089 213.266 234.512 208.421 235.033 203.825C235.033 203.825 269.982 207.743 277.134 209.785C280.823 210.838 281.617 213.608 282.166 215.523Z" fill="#44474F"/>
<path d="M264.592 146.172C264.511 146.195 256.276 149.905 254.756 153.871C253.191 157.949 240.102 206.112 239.971 206.597C239.79 208.167 239.935 209.757 240.398 211.268C240.861 212.778 241.632 214.176 242.662 215.375L242.156 215.182C241.94 215.096 241.731 215.003 241.523 214.903C238.292 210.777 239.32 206.618 239.369 206.435C239.908 204.446 252.599 157.754 254.163 153.65C255.542 150.053 261.402 147.03 263.291 146.133L263.993 146.157L264.592 146.172Z" fill="#33353B"/>
<path d="M275.656 146.491C274.461 147.096 269.858 149.761 268.22 155.539C266.299 162.32 255.865 211.98 255.759 212.48L255.751 212.516L255.735 212.548C255.725 212.573 254.797 215.207 256.256 217.259L255.841 217.21L255.432 217.163C254.063 214.988 255.009 212.646 255.152 212.317C255.475 210.783 265.707 162.092 267.614 155.371C269.026 150.391 272.552 147.628 274.444 146.456L275.656 146.491Z" fill="#33353B"/>
<path d="M290.122 148.069C288.922 148.596 287.809 149.302 286.82 150.163C284.752 151.998 283.261 154.393 282.528 157.057C280.607 163.832 271.045 213.434 270.95 213.934L270.943 213.972L270.926 214.006C270.915 214.032 270.385 217.073 271.845 219.125L270.803 219.001C269.725 217.156 270.189 214.128 270.341 213.78C270.647 212.195 280.018 163.609 281.931 156.884C283.72 150.566 288.38 148.146 289.361 147.698L289.618 147.809L290.122 148.069Z" fill="#33353B"/>
<path d="M313.042 199.214C313.042 199.214 310.734 203.023 311.943 204.925C313.152 206.827 316.382 207.385 317.489 209.801C318.596 212.218 320.526 213.157 321.905 212.762L328.484 210.875C328.484 210.875 328.991 208.805 326.384 208.973C323.776 209.141 321.999 206.435 321.362 203.634C320.726 200.833 319.285 197.26 319.285 197.26L313.72 197.529L313.042 199.214Z" fill="#33353B"/>
<path d="M374.289 197.727L356.822 202.736C356.698 202.749 356.574 202.748 356.451 202.732C355.12 202.484 354.208 197.93 353.954 196.509C353.907 196.246 353.88 196.081 353.88 196.081C353.88 196.081 358.609 189.421 360.528 192.934C360.588 193.042 360.653 193.149 360.718 193.252C362.786 196.459 368.006 196.691 370.884 196.347C373.076 196.094 373.97 197.158 374.289 197.727Z" fill="#33353B"/>
<path d="M341.96 98.2422C341.96 98.2422 344.358 110.121 347.265 124.394C351.215 143.781 356.103 167.584 357.191 172.045C359.082 179.795 361.367 192.403 361.367 192.403C361.367 192.403 359.29 196.146 353.116 196.59C353.116 196.59 342.902 180.587 336.116 162.502C336.007 162.205 335.896 161.906 335.784 161.606C329.001 143.16 315.469 104.098 315.469 104.098L341.96 98.2422Z" fill="#F7B46B"/>
<path d="M341.96 98.2423C341.96 98.2423 344.358 110.121 347.265 124.395L336.109 162.504C336 162.207 335.89 161.908 335.778 161.608C328.995 143.162 315.462 104.1 315.462 104.1L341.96 98.2423Z" fill="#F79D31"/>
<path d="M338.1 100.842C338.1 100.842 333.369 147.708 327.996 170.636C322.623 193.563 320.753 200.069 320.753 200.069C320.753 200.069 313.705 199.354 312.635 197.797C312.635 197.797 305.916 158.434 310.644 147.014C313.314 140.56 313.699 123.382 312.346 117.8C310.994 112.219 309.13 100.942 309.13 100.942L338.1 100.842Z" fill="#F4B269"/>
<path d="M351.75 84.364L353.259 85.9998C353.259 85.9998 358.335 85.2818 358.447 90.7514C358.447 90.7514 358.323 93.049 356.788 92.7741C355.253 92.4992 355.93 92.3636 353.747 92.0251C351.564 91.6865 349.955 90.2975 349.937 88.6049L349.151 87.0317L351.75 84.364Z" fill="#C97E67"/>
<path d="M310.877 38.3992C310.362 33.7827 309.636 31.1647 309.636 31.1647L299.144 26.7533C302.164 36.0928 297.416 42.3627 297.416 42.3627C297.416 42.3627 310.371 44.6916 316.338 40.7412C314.676 39.6336 312.826 38.8399 310.877 38.3992Z" fill="#C97E67"/>
<path d="M311.597 30.4335C311.597 30.4335 301.275 35.3404 298.322 28.871C295.368 22.4016 292.044 18.6803 298.507 15.2735C304.97 11.8666 307.39 13.747 308.901 15.6655C310.412 17.584 314.205 28.9908 311.597 30.4335Z" fill="#C97E67"/>
<path d="M298.524 29.3186C298.524 29.3186 296.15 20.2054 305.614 15.9177C312.093 12.9808 306.376 8.50442 305.347 7.83703C305.347 7.83703 300.461 10.3062 295.501 12.983C285.084 18.6008 296.966 28.3086 298.524 29.3186Z" fill="#33353B"/>
<path d="M351.376 87.3469C352.047 86.0294 352.565 84.6393 352.918 83.2039C352.918 83.2039 336.223 71.4497 334.773 70.1522C333.323 68.8546 318.549 45.5752 318.549 45.5752L298.538 47.176C298.538 47.176 323.653 75.1868 327.404 78.4034C333.604 83.7191 349.33 89.7684 349.33 89.7684C350.164 89.103 350.86 88.2803 351.376 87.3469Z" fill="#FFF2E2"/>
<path d="M342.96 99.0036C342.817 99.2257 342.599 99.3889 342.345 99.4633C339.871 100.137 333.079 103.564 326.822 104.683C321.555 105.661 316.585 105.445 311.087 104.66C310.358 104.557 308.641 104.19 308.467 103.458C308.263 102.659 308.011 101.491 307.706 100.016C306.61 94.8931 304.733 86.0801 301.288 76.278C300.65 74.4531 300.068 72.6279 299.54 70.8166C295.618 57.3266 294.824 44.6147 299.061 39.0491C299.426 38.5869 302.708 39.2107 305.674 39.7452C308.413 40.2392 310.081 39.7316 312.216 38.6225L315.824 39.9264C319.317 41.6947 323.338 44.3077 326.168 49.2162C328.574 53.3919 331.556 61.3123 334.328 69.6124C335.584 73.3734 336.816 77.1773 337.895 80.8119L337.932 80.9407C338.068 81.2926 338.182 81.6874 338.285 82.0489C341.091 91.369 343.086 98.8235 342.96 99.0036Z" fill="#FFFFF8"/>
<path d="M307.698 100.017C306.603 94.8949 304.726 86.0819 301.281 76.2797C300.643 74.4549 300.061 72.6297 299.533 70.8183C300.219 64.7353 300.922 60.264 300.922 60.264L306.58 58.6416C306.58 58.6416 318.842 85.7576 307.698 100.017Z" fill="#FFF2E2"/>
<path d="M297.195 104.933L296.651 107.091C296.651 107.091 300.032 110.939 295.518 114.032C295.518 114.032 293.525 115.191 292.915 113.756C292.306 112.32 292.789 112.814 291.876 110.805C290.962 108.796 291.247 106.688 292.652 105.743L293.542 104.223L297.195 104.933Z" fill="#C97E67"/>
<path d="M294.492 106.255C295.963 106.094 297.41 105.765 298.806 105.274C298.806 105.274 299.502 84.8729 299.791 82.9442C300.08 81.0155 311.479 55.9058 311.479 55.9058L299.186 40.0562C299.186 40.0562 289.494 76.4086 288.856 81.3108C287.802 89.4082 291.352 105.867 291.352 105.867C292.363 106.202 293.43 106.334 294.492 106.255Z" fill="#FFFFF8"/>
<path d="M310.589 36.1477C308.375 33.8609 305.443 32.4005 302.282 32.0093C302.282 32.0093 305.448 32.8484 309.633 31.1562C309.635 31.1645 310.387 34.6272 310.589 36.1477Z" fill="#B2604D"/>
<path d="M46.1253 232.411C20.6613 238.584 4.51765 262.227 10.0843 285.188C19.0482 322.162 77.4988 361.818 77.4988 361.818C77.4988 361.818 111.299 299.797 102.335 262.823C96.7683 239.862 71.5894 226.237 46.1253 232.411ZM61.8121 297.114C58.163 297.999 54.333 297.779 50.8064 296.484C47.2798 295.188 44.215 292.874 41.9996 289.835C39.7842 286.795 38.5177 283.167 38.3602 279.408C38.2026 275.649 39.1612 271.929 41.1147 268.718C43.0682 265.507 45.9289 262.95 49.3349 261.369C52.7409 259.788 56.5394 259.254 60.2499 259.836C63.9605 260.418 67.4165 262.089 70.1808 264.638C72.9452 267.186 74.8938 270.498 75.7803 274.154C76.9632 279.057 76.1569 284.228 73.5382 288.532C70.9196 292.837 66.7024 295.923 61.8121 297.114Z" fill="#6403FC"/>
<circle cx="60.9557" cy="281.579" r="26.6312" fill="#6403FC"/>
<path d="M45.4471 310.428L39.8977 278.956L34.266 285.358L56.793 259.752L86.7192 276.109L79.2376 272.019L84.787 303.491L45.4471 310.428Z" stroke="white" stroke-width="3" stroke-linecap="round" stroke-linejoin="round"/>
<path d="M55.5544 291.067L58.5603 308.115L71.6736 305.802L68.6677 288.755L55.5544 291.067Z" stroke="white" stroke-width="3" stroke-linejoin="round"/>
<path d="M45.4468 310.427L84.7867 303.49" stroke="white" stroke-width="3" stroke-linecap="round"/>
<path d="M935.053 229.975C909.282 223.726 883.798 237.514 878.163 260.752C869.09 298.172 903.296 360.943 903.296 360.943C903.296 360.943 962.453 320.81 971.527 283.391C977.162 260.153 960.824 236.224 935.053 229.975ZM919.174 295.459C915.481 294.563 912.137 292.591 909.565 289.79C906.993 286.99 905.308 283.487 904.724 279.726C904.139 275.964 904.682 272.113 906.282 268.658C907.883 265.204 910.469 262.301 913.715 260.318C916.961 258.334 920.721 257.359 924.518 257.515C928.315 257.672 931.98 258.953 935.048 261.196C938.117 263.44 940.452 266.545 941.757 270.119C943.063 273.693 943.281 277.576 942.384 281.277C941.175 286.236 938.053 290.514 933.702 293.173C929.351 295.832 924.126 296.654 919.174 295.459Z" fill="#6403FC"/>
<circle cx="920.627" cy="280.422" r="25.8297" fill="#6403FC"/>
<path d="M940.797 264.901C940.429 265.204 939.204 266.232 938.874 266.541L931.996 272.52C931.962 272.552 931.919 272.574 931.872 272.584C931.826 272.593 931.777 272.589 931.733 272.573L903.63 267.079C903.452 267.036 903.267 267.033 903.087 267.069C902.908 267.105 902.738 267.18 902.59 267.288L899.678 269.689L921.961 280.61C922.013 280.635 922.057 280.672 922.09 280.719C922.123 280.766 922.143 280.82 922.149 280.877C922.154 280.934 922.145 280.991 922.121 281.044C922.098 281.096 922.061 281.141 922.015 281.175L908.995 292.236C908.861 292.353 908.701 292.437 908.529 292.481C908.357 292.525 908.177 292.528 908.003 292.489L899.977 290.919C899.304 290.764 898.508 291.039 897.978 291.475L895.935 293.159C895.795 293.274 895.924 293.388 896.071 293.489L904.597 299.454C905.101 299.734 905.48 300.195 905.66 300.743L909.866 310.229C909.976 310.493 910.077 310.6 910.325 310.396L912.267 308.796C913.148 308.069 913.174 307.855 913.157 306.916L913.16 298.599C913.156 298.422 913.194 298.246 913.27 298.085C913.346 297.925 913.458 297.784 913.598 297.674L926.911 287.191C926.959 287.153 927.016 287.127 927.077 287.116C927.138 287.105 927.2 287.109 927.259 287.127C927.318 287.146 927.371 287.178 927.415 287.222C927.458 287.266 927.49 287.32 927.508 287.379L933.966 311.284L936.851 308.905C936.985 308.781 937.091 308.629 937.16 308.46C937.23 308.291 937.262 308.109 937.255 307.927L937.261 279.277C937.25 279.177 937.397 279.001 937.472 278.94L944.545 273.418C944.921 273.145 946.153 272.148 946.522 271.843C951.317 267.89 953.264 264.072 951.484 261.913C949.704 259.754 945.607 260.936 940.797 264.901Z" stroke="white" stroke-width="2" stroke-linecap="round" stroke-linejoin="round"/>
</svg>
